<?xml version="1.0" encoding="UTF-8"?>
<svg xmlns="http://www.w3.org/2000/svg" xmlns:xlink="http://www.w3.org/1999/xlink" viewBox="0 0 2159.58 1188.79">
  <defs>
    <style>
      .cls-1 {
        fill: #f5f5f5;
        stroke: #b5b5b5;
      }

      .cls-1, .cls-2, .cls-3, .cls-4, .cls-5, .cls-6, .cls-7, .cls-8, .cls-9, .cls-10, .cls-11, .cls-12, .cls-13, .cls-14, .cls-15, .cls-16, .cls-17, .cls-18, .cls-19, .cls-20, .cls-21, .cls-22, .cls-23, .cls-24, .cls-25 {
        stroke-miterlimit: 10;
      }

      .cls-1, .cls-7, .cls-14, .cls-17, .cls-21 {
        stroke-width: 2px;
      }

      .cls-2 {
        filter: url(#drop-shadow-18);
      }

      .cls-2, .cls-3, .cls-4, .cls-5, .cls-6, .cls-7, .cls-8, .cls-9, .cls-10, .cls-11, .cls-12, .cls-13, .cls-15, .cls-16, .cls-18, .cls-19, .cls-20, .cls-21, .cls-22, .cls-23, .cls-24, .cls-25 {
        stroke: #5c656d;
      }

      .cls-2, .cls-3, .cls-4, .cls-5, .cls-6, .cls-8, .cls-9, .cls-10, .cls-11, .cls-12, .cls-13, .cls-15, .cls-16, .cls-18, .cls-19, .cls-20, .cls-22, .cls-23, .cls-24, .cls-25 {
        fill: #fff;
        font-family: Gisha-Bold, Gisha;
        font-weight: 700;
      }

      .cls-2, .cls-3, .cls-4, .cls-6, .cls-9, .cls-10, .cls-11, .cls-12, .cls-13, .cls-15, .cls-16, .cls-19, .cls-20, .cls-22, .cls-23, .cls-24, .cls-25 {
        stroke-width: .5px;
      }

      .cls-2, .cls-6, .cls-16 {
        font-size: 23px;
      }

      .cls-3 {
        filter: url(#drop-shadow-15);
        font-size: 16px;
      }

      .cls-4 {
        filter: url(#drop-shadow-11);
      }

      .cls-4, .cls-10, .cls-11, .cls-13, .cls-15, .cls-20, .cls-22, .cls-23, .cls-24, .cls-25 {
        font-size: 25px;
      }

      .cls-5 {
        filter: url(#drop-shadow-3);
      }

      .cls-5, .cls-8 {
        font-size: 49px;
      }

      .cls-6 {
        filter: url(#drop-shadow-17);
      }

      .cls-26, .cls-17, .cls-21 {
        fill: #e6e4e2;
      }

      .cls-7 {
        fill: #cececd;
      }

      .cls-8 {
        filter: url(#drop-shadow-2);
      }

      .cls-9 {
        filter: url(#drop-shadow-19);
        font-size: 31px;
      }

      .cls-10 {
        filter: url(#drop-shadow-10);
      }

      .cls-11 {
        filter: url(#drop-shadow-5);
      }

      .cls-12 {
        filter: url(#drop-shadow-14);
      }

      .cls-12, .cls-19 {
        font-size: 19px;
      }

      .cls-13 {
        filter: url(#drop-shadow-8);
      }

      .cls-14 {
        fill: #ceff6e;
      }

      .cls-14, .cls-17 {
        stroke: #787878;
      }

      .cls-15 {
        filter: url(#drop-shadow-9);
      }

      .cls-16 {
        filter: url(#drop-shadow-16);
      }

      .cls-18 {
        filter: url(#drop-shadow-1);
        font-size: 65px;
      }

      .cls-19 {
        filter: url(#drop-shadow-13);
      }

      .cls-20 {
        filter: url(#drop-shadow-4);
      }

      .cls-22 {
        filter: url(#drop-shadow-7);
      }

      .cls-23 {
        filter: url(#drop-shadow-6);
      }

      .cls-24 {
        filter: url(#drop-shadow-12);
      }

      .cls-25 {
        filter: url(#drop-shadow-20);
      }
    </style>
    <filter id="drop-shadow-1" filterUnits="userSpaceOnUse">
      <feOffset dx="-2" dy="5"/>
      <feGaussianBlur result="blur" stdDeviation="3"/>
      <feFlood flood-color="#000" flood-opacity="1"/>
      <feComposite in2="blur" operator="in"/>
      <feComposite in="SourceGraphic"/>
    </filter>
    <filter id="drop-shadow-2" filterUnits="userSpaceOnUse">
      <feOffset dx="3" dy="4"/>
      <feGaussianBlur result="blur-2" stdDeviation="3"/>
      <feFlood flood-color="#000" flood-opacity="1"/>
      <feComposite in2="blur-2" operator="in"/>
      <feComposite in="SourceGraphic"/>
    </filter>
    <filter id="drop-shadow-3" filterUnits="userSpaceOnUse">
      <feOffset dx="3" dy="4"/>
      <feGaussianBlur result="blur-3" stdDeviation="3"/>
      <feFlood flood-color="#000" flood-opacity="1"/>
      <feComposite in2="blur-3" operator="in"/>
      <feComposite in="SourceGraphic"/>
    </filter>
    <filter id="drop-shadow-4" filterUnits="userSpaceOnUse">
      <feOffset dx="1" dy="-2"/>
      <feGaussianBlur result="blur-4" stdDeviation="1"/>
      <feFlood flood-color="#000" flood-opacity=".75"/>
      <feComposite in2="blur-4" operator="in"/>
      <feComposite in="SourceGraphic"/>
    </filter>
    <filter id="drop-shadow-5" filterUnits="userSpaceOnUse">
      <feOffset dx="1" dy="-2"/>
      <feGaussianBlur result="blur-5" stdDeviation="1"/>
      <feFlood flood-color="#000" flood-opacity=".75"/>
      <feComposite in2="blur-5" operator="in"/>
      <feComposite in="SourceGraphic"/>
    </filter>
    <filter id="drop-shadow-6" filterUnits="userSpaceOnUse">
      <feOffset dx="1" dy="-2"/>
      <feGaussianBlur result="blur-6" stdDeviation="1"/>
      <feFlood flood-color="#000" flood-opacity=".75"/>
      <feComposite in2="blur-6" operator="in"/>
      <feComposite in="SourceGraphic"/>
    </filter>
    <filter id="drop-shadow-7" filterUnits="userSpaceOnUse">
      <feOffset dx="1" dy="-2"/>
      <feGaussianBlur result="blur-7" stdDeviation="1"/>
      <feFlood flood-color="#000" flood-opacity=".75"/>
      <feComposite in2="blur-7" operator="in"/>
      <feComposite in="SourceGraphic"/>
    </filter>
    <filter id="drop-shadow-8" filterUnits="userSpaceOnUse">
      <feOffset dx="1" dy="-2"/>
      <feGaussianBlur result="blur-8" stdDeviation="1"/>
      <feFlood flood-color="#000" flood-opacity=".75"/>
      <feComposite in2="blur-8" operator="in"/>
      <feComposite in="SourceGraphic"/>
    </filter>
    <filter id="drop-shadow-9" filterUnits="userSpaceOnUse">
      <feOffset dx="1" dy="-2"/>
      <feGaussianBlur result="blur-9" stdDeviation="1"/>
      <feFlood flood-color="#000" flood-opacity=".75"/>
      <feComposite in2="blur-9" operator="in"/>
      <feComposite in="SourceGraphic"/>
    </filter>
    <filter id="drop-shadow-10" filterUnits="userSpaceOnUse">
      <feOffset dx="1" dy="-2"/>
      <feGaussianBlur result="blur-10" stdDeviation="1"/>
      <feFlood flood-color="#000" flood-opacity=".75"/>
      <feComposite in2="blur-10" operator="in"/>
      <feComposite in="SourceGraphic"/>
    </filter>
    <filter id="drop-shadow-11" filterUnits="userSpaceOnUse">
      <feOffset dx="1" dy="-2"/>
      <feGaussianBlur result="blur-11" stdDeviation="1"/>
      <feFlood flood-color="#000" flood-opacity=".75"/>
      <feComposite in2="blur-11" operator="in"/>
      <feComposite in="SourceGraphic"/>
    </filter>
    <filter id="drop-shadow-12" filterUnits="userSpaceOnUse">
      <feOffset dx="1" dy="-2"/>
      <feGaussianBlur result="blur-12" stdDeviation="1"/>
      <feFlood flood-color="#000" flood-opacity=".75"/>
      <feComposite in2="blur-12" operator="in"/>
      <feComposite in="SourceGraphic"/>
    </filter>
    <filter id="drop-shadow-13" filterUnits="userSpaceOnUse">
      <feOffset dx="1" dy="-2"/>
      <feGaussianBlur result="blur-13" stdDeviation="1"/>
      <feFlood flood-color="#000" flood-opacity=".75"/>
      <feComposite in2="blur-13" operator="in"/>
      <feComposite in="SourceGraphic"/>
    </filter>
    <filter id="drop-shadow-14" filterUnits="userSpaceOnUse">
      <feOffset dx="1" dy="-2"/>
      <feGaussianBlur result="blur-14" stdDeviation="1"/>
      <feFlood flood-color="#000" flood-opacity=".75"/>
      <feComposite in2="blur-14" operator="in"/>
      <feComposite in="SourceGraphic"/>
    </filter>
    <filter id="drop-shadow-15" filterUnits="userSpaceOnUse">
      <feOffset dx="1" dy="-2"/>
      <feGaussianBlur result="blur-15" stdDeviation="1"/>
      <feFlood flood-color="#000" flood-opacity=".75"/>
      <feComposite in2="blur-15" operator="in"/>
      <feComposite in="SourceGraphic"/>
    </filter>
    <filter id="drop-shadow-16" filterUnits="userSpaceOnUse">
      <feOffset dx="1" dy="-2"/>
      <feGaussianBlur result="blur-16" stdDeviation="1"/>
      <feFlood flood-color="#000" flood-opacity=".75"/>
      <feComposite in2="blur-16" operator="in"/>
      <feComposite in="SourceGraphic"/>
    </filter>
    <filter id="drop-shadow-17" filterUnits="userSpaceOnUse">
      <feOffset dx="1" dy="-2"/>
      <feGaussianBlur result="blur-17" stdDeviation="1"/>
      <feFlood flood-color="#000" flood-opacity=".75"/>
      <feComposite in2="blur-17" operator="in"/>
      <feComposite in="SourceGraphic"/>
    </filter>
    <filter id="drop-shadow-18" filterUnits="userSpaceOnUse">
      <feOffset dx="1" dy="-2"/>
      <feGaussianBlur result="blur-18" stdDeviation="1"/>
      <feFlood flood-color="#000" flood-opacity=".75"/>
      <feComposite in2="blur-18" operator="in"/>
      <feComposite in="SourceGraphic"/>
    </filter>
    <filter id="drop-shadow-19" filterUnits="userSpaceOnUse">
      <feOffset dx="1" dy="-2"/>
      <feGaussianBlur result="blur-19" stdDeviation="1"/>
      <feFlood flood-color="#000" flood-opacity=".75"/>
      <feComposite in2="blur-19" operator="in"/>
      <feComposite in="SourceGraphic"/>
    </filter>
    <filter id="drop-shadow-20" filterUnits="userSpaceOnUse">
      <feOffset dx="1" dy="-2"/>
      <feGaussianBlur result="blur-20" stdDeviation="1"/>
      <feFlood flood-color="#000" flood-opacity=".75"/>
      <feComposite in2="blur-20" operator="in"/>
      <feComposite in="SourceGraphic"/>
    </filter>
  </defs>
  <g id="Layer_5" data-name="Layer 5">
    <rect class="cls-26" x="181.16" y="44.8" width="1920" height="1080"/>
  </g>
  <g id="Layer_3" data-name="Layer 3">
    <path class="cls-7" d="M181.16,495.55c41.47,4.9,82.93,9.8,124.4,14.7-.64-40.03-1.28-80.07-1.92-120.1-41.57-4.67-83.15-9.35-124.72-14.02l-.54-19.42c41.71,4.99,83.42,9.98,125.12,14.97l2.16-127.48c6.27.04,12.54.09,18.81.13-.21,89.52-.42,179.03-.62,268.55,18.87,2.47,37.75,4.95,56.62,7.42-2.51-106.88-5.02-213.76-7.53-320.65,2.82-3.49,5.65-6.98,8.47-10.47,3.66.05,7.31.1,10.97.15,2.39,111.12,4.79,222.24,7.18,333.35,32.02,4.11,64.04,8.22,96.07,12.34,1.16.09,2.92.37,4.85,1.28,2.03.95,3.32,2.24,4.92,3.84,1.2,1.2,2.76,2.94,4.31,5.26l-.34-33.3c-.75-.5-1.43-.97-2.01-1.38-.74-.53-1.07-.78-1.37-1.24-.33-.52-.44-1.03-.48-1.39,1.34-97.48,2.67-194.97,4.01-292.45-.12-3.33-.25-6.65-.37-9.98,4.72,1.35,9.44,2.7,14.16,4.04-1.47,51.17-2.94,102.34-4.42,153.51,44.7.67,89.39,1.35,134.09,2.02,30.88-.67,61.75-1.35,92.63-2.02.07-38.76.13-77.53.2-116.29,3.71.07,7.42.13,11.12.2l2.63,185.66,137.93-1.82c.47-18.94.94-37.89,1.42-56.83,6.27.61,12.54,1.21,18.81,1.82.94,74.63,1.89,149.26,2.83,223.89,81.44,8.83,162.88,17.66,244.31,26.49-.34-19.89-.67-39.78-1.01-59.66-.79-.15-1.96-.5-3.12-1.37-.6-.45-1.44-1.08-1.96-2.26-.52-1.19-.42-2.28-.34-2.8-1.06-47.87-2.11-95.74-3.17-143.61,4.4.72,8.81,1.44,13.21,2.16,1.44,46.65,2.88,93.3,4.31,139.96-.03.75.18,2.68-.7,4.19-.92,1.57-1.67,2.27-2.22,2.63-1.04.67-2.02,1-2.68,1.16.92,20.33,1.03,40.26,1.95,60.58,74.44,9.85,148.88,19.71,223.31,29.56-.96-92.9-1.91-185.8-2.87-278.7,67.53,2.78,135.06,5.55,202.58,8.33,83.74,12.98,167.48,25.96,251.22,38.93,18.13-5.82,36.27-11.64,54.4-17.46,3.78,26.8,7.55,53.6,11.33,80.39,22.18-3.2,45.15-6.09,68.87-8.56,18.1-1.89,31.94-3.02,49.35-4.45,18.99-1.56,44.31-3.49,74.46-5.36.09,6.38.18,12.76.27,19.15l-103.52,6.72c3.64,32.2,7.28,64.39,10.92,96.59.25.71.7,2.28.3,4.2-.14.7-.45,2.1-1.62,3.34-1.72,1.83-4.01,1.96-4.65,1.97-2.23.04-3.8-1.04-4.35-1.47-1.69-1.31-2.25-3.01-2.53-3.89-.54-1.71-.42-3.18-.3-3.99-4.57-31.87-9.13-63.74-13.7-95.61-23.66,3.71-47.33,7.42-70.99,11.12,7.85,67.15,15.71,134.29,23.56,201.44l171.78-14.26c-.4,9.51-.81,19.01-1.21,28.52-55.35,4.92-110.7,9.84-166.04,14.76,8.79,64.52,17.57,129.03,26.36,193.55l66.74-6.27c-1.35-18.2-2.7-36.4-4.04-54.61-.05-.52-.3-3.76,2.04-6.12,1.25-1.26,2.68-1.69,3.17-1.82.63-.17,2.59-.58,4.65.4,1.31.63,2.05,1.54,2.49,2.09,1.69,2.12,1.96,4.5,2.01,5.65,1.62,18,3.24,36,4.85,54,18.34-2.76,36.67-5.53,55.01-8.29l-.2,19.21c-22.11,2.83-44.22,5.66-66.34,8.49-6.74.74-13.48,1.48-20.22,2.22-8.49.34-16.99.67-25.48,1.01-4.99,8.36-9.98,16.72-14.97,25.08,11.84,52.45,23.69,104.9,35.53,157.35-19.69-1.17-39.37-2.34-59.06-3.51-13.15-46.65-26.29-93.3-39.44-139.96-8.45-1.87-16.9-3.73-25.35-5.6-52.38-6.47-104.76-12.94-157.15-19.42-57.64-6.61-115.28-13.21-172.92-19.82-56.7-7.15-113.39-14.29-170.09-21.44-73.82-9.26-147.64-18.52-221.46-27.78-4.38-.18-8.76-.36-13.15-.54-.97-1.06-1.93-2.11-2.9-3.17-23.6-2.7-47.19-5.39-70.79-8.09-.08,1.84-.16,3.69-.24,5.53-.08.49-.27,1.27-.78,2.09-.27.43-.85,1.35-2.02,1.92-.89.44-1.73.49-2.22.47-27.92-3.34-55.84-6.67-83.76-10.01-1.25,10.62-2.49,21.24-3.74,31.85-.02.75-.18,2.62-1.5,4.43-1.16,1.6-2.59,2.28-2.95,2.44-.6.27-2.57,1.17-4.85.4-.38-.13-1.85-.67-2.93-2.12-.66-.89-1.53-2.61-1.21-5.66.45-4.42,14.34-118.83,33.44-275.29-59.37-7.24-118.74-14.47-178.11-21.71-4.63,28.58-9.26,57.17-13.89,85.75,25.71,5.57,51.42,11.15,77.12,16.72.68.21,2.13.76,3.37,2.16,1.77,2.01,1.83,4.35,1.82,5.06-.01.65-.14,3-1.82,4.79,0,0-1.81,1.92-5.39,2.22-5.01.42-35.39-6.08-76.65-16.25-5.22,29.28-10.45,58.56-15.67,87.84l-27.34,160.85c-6.1-1.62-12.2-3.24-18.3-4.85,11.37-65.2,22.74-130.4,34.11-195.61l-93-19.31c-.83-.04-9.13-1.14-6.49-9.13,1.31-4.96,11.03-3.17,12.05-2.5,29.69,6.03,59.38,12.06,89.07,18.08,7.85-45.71,15.71-91.42,23.56-137.12l-189.07-26.93c-7.01,29.46-14.02,58.92-21.03,88.38,12.97,2.81,25.94,5.63,38.92,8.44.96.25,2.77.87,4.43,2.44.88.83,2.61,2.46,2.85,5.1.2,2.17-.64,4.59-2.45,6.03-1.47,1.17-3.08,1.29-5.46,1.43-3.66.21-6.45-.47-6.7-.53-4.6-1.12-17.2-3.75-34.38-7.38-8.53,38.41-17.07,76.82-25.6,115.23,46.65,9.51,93.3,19.01,139.96,28.52.36.03,3.3.31,4.99,2.9.24.37,1.7,2.69.74,5.33-.92,2.52-3.35,3.4-3.84,3.57-2.92,1.05-5.83-.21-6.34-.4-4.89-1.92-58.47-11.86-139.4-26.29l-1.16,7.48c.98,5.97,1.96,11.93,2.93,17.9-4.52-.42-9.03-.84-13.55-1.26-.66-6.52-1.31-13.04-1.97-19.57,4.2-17.86,8.4-35.72,12.61-53.58-26.34-5.15-52.67-10.29-79.01-15.44-.29-.06-4.29-.94-5.7-4.67-.22-.58-1.16-3.32.4-5.87,1.34-2.18,3.99-3.37,6.76-3.03,25.67,5.91,51.35,11.82,77.02,17.73,2.76-10.92,5.53-21.84,8.29-32.76-10.65.94-21.3,1.89-31.96,2.83-13.75-2.83-27.51-5.66-41.26-8.49-.67-.22-2.56-.92-3.66-2.8-1.61-2.75-.67-6.57,1.75-8.56,2.01-1.65,4.43-1.54,5.12-1.48,13.56,2.22,27.11,4.45,40.67,6.67,10.75-.78,21.51-1.55,32.26-2.33.91-2.39,1.82-4.79,2.73-7.18-11.93-2.16-23.87-4.31-35.8-6.47-.2-.04-4.91-1.2-6.15-5.49-.15-.53-.9-3.33.74-5.73,1.68-2.46,5.2-3.51,8.65-2.43,11.8,2.43,23.6,4.85,35.39,7.28,8.38-35.34,16.76-70.67,25.15-106.01-33.26-3.96-66.52-7.91-99.78-11.87-1.12,2.1-2.39,3.61-3.37,4.62-1.04,1.06-2.35,2.38-4.48,3.4-2.13,1.02-4.12,1.29-5.46,1.35-31.36-2.84-62.72-5.67-94.08-8.51-2.43,34.31-4.85,68.63-7.28,102.94l57.84,15.37c4.56.78,7.57,4.93,7.08,8.9-.55,4.47-5.41,7.96-10.5,6.66-19.02-5.25-38.04-10.49-57.07-15.74-42.31,148.43-84.63,296.85-126.94,445.28-11.06-2.7-22.11-5.39-33.17-8.09,26.02-89.19,52.04-178.38,78.07-267.57-45.1-13.82-90.2-27.64-135.3-41.46.81-1.96,1.62-3.91,2.43-5.87,44.63,13.96,89.26,27.91,133.89,41.87,18.09-59.73,36.18-119.46,54.27-179.19-26.63-2.9-53.26-5.8-79.89-8.7-9.37,22.99-18.74,45.98-28.11,68.97-1.08,3.71-5.12,5.6-8.39,4.28-3.06-1.24-4.69-4.99-3.34-8.33,8.43-22.18,16.85-44.36,25.28-66.54-32.09-3.44-64.18-6.88-96.27-10.31.67-4.52,1.35-9.03,2.02-13.55,63.1,7.62,126.2,15.24,189.3,22.85,2.76-31.55,5.53-63.1,8.29-94.65-67.3-9.3-134.61-18.61-201.91-27.91,3.15-16.5,6.3-33,9.46-49.5Z"/>
    <path class="cls-21" d="M1018.69,637.11l-27.13,237.3s51.28,7.73,76.92,11.6c.15.08,1.26.65,2.49.13,1.45-.61,1.71-2.16,1.72-2.25.1-3.76.19-7.52.29-11.28.04-.61.2-1.64.88-2.63,1.68-2.46,4.92-2.37,5.19-2.36,23.22,2.64,46.45,5.28,69.67,7.92,11.21-71.87,33.64-215.6,33.64-215.6l-163.66-22.83Z"/>
    <path class="cls-17" d="M1201.09,660.88c-11.51,71.19-23.01,142.38-34.52,213.57,44.4,5.57,88.81,11.15,133.21,16.72,7.89-61.01,15.78-122.02,23.66-183.03.2-.51.84-1.94,2.43-2.97,1.52-.99,3.02-1.02,3.57-1.01l3.78-26.02c-44.04-5.75-88.09-11.51-132.13-17.26Z"/>
    <path class="cls-17" d="M1336.05,678.61c-1.26,8.66-2.53,17.31-3.79,25.97.53.11,1.51.41,2.41,1.23,1.72,1.58,1.7,3.81,1.69,4.18-7.87,60.8-15.73,121.61-23.6,182.41,43.37,5.6,86.74,11.19,130.11,16.79,10-71.15,20-142.29,30-213.44-45.61-5.71-91.21-11.43-136.82-17.14Z"/>
    <path class="cls-17" d="M1491.28,698.25c42.61,4.18,85.21,8.36,127.82,12.54.67,7.75,1.35,15.51,2.02,23.26-.57-.04-2.3-.08-3.98,1.04-2.25,1.51-2.67,3.93-2.73,4.35-7.7,62.9-15.39,125.8-23.09,188.7-43.15-5.66-86.29-11.33-129.44-16.99,9.8-70.97,19.6-141.93,29.39-212.9Z"/>
    <path class="cls-17" d="M1622.91,710.5c.74,7.82,1.48,15.64,2.22,23.46.48.25,1.25.72,1.92,1.57,1.06,1.34,1.23,2.77,1.26,3.34-8.12,63.6-16.24,127.2-24.35,190.8,46.02,5.21,92.04,10.43,138.07,15.64,8.85-72.99,17.71-145.98,26.56-218.97-48.56-5.28-97.12-10.56-145.69-15.84Z"/>
    <path class="cls-17" d="M1780,727.42c33.93,3.87,67.87,7.73,101.8,11.6,5.17,56.7,10.34,113.39,15.51,170.09,4.13,19.55,8.27,39.1,12.4,58.65-8.58-1.8-17.17-3.6-25.75-5.39-43.06-5.21-86.11-10.43-129.17-15.64,8.4-73.1,16.81-146.2,25.21-219.3Z"/>
    <path class="cls-17" d="M1584.62,677.6c2.29-91.69,4.58-183.37,6.88-275.06,84.31,13.48,168.63,26.97,252.94,40.45,5.39,31.28,10.79,62.56,16.18,93.84-30.45-.83-60.9-1.66-91.35-2.49-4.16.84-7.08,4.6-6.88,8.7.21,4.34,3.86,7.91,8.36,8.02,30.36.85,60.72,1.71,91.08,2.56,1.96,17.44,3.91,34.87,5.87,52.31,3.88,34.56,7.75,69.13,11.63,103.69-98.24-10.67-196.47-21.35-294.71-32.02Z"/>
    <path class="cls-17" d="M1566.85,675.78c-52.04-5.84-104.09-11.69-156.13-17.53-.72-88.63-1.44-177.26-2.16-265.89,54.47,2.34,108.94,4.67,163.42,7.01-1.71,92.13-3.42,184.27-5.12,276.4Z"/>
    <path class="cls-14" d="M1868.13,605.19c-25.46.51-50.93,1.02-76.39,1.52-.68.07-3.16.42-5.21,2.5-2.03,2.05-2.33,4.45-2.4,5.13-2.09,27.91-4.18,55.82-6.27,83.72l101.46,11.56-11.19-104.44Z"/>
    <path class="cls-14" d="M672.56,377.69c24.22-.58,48.45-1.17,72.67-1.75.09,19.28.18,38.56.27,57.84-24.36,1.57-48.72,3.15-73.08,4.72.04-20.27.09-40.54.13-60.81Z"/>
    <path class="cls-21" d="M523.07,374.42l-3.51,3.78c-.34,43.09-.67,86.18-1.01,129.27-.09.52-.32,1.51-1.08,2.49-1.04,1.35-2.4,1.81-2.9,1.96l.98,35.7c49.2,6.49,98.4,12.99,147.61,19.48.28-8.16.56-16.33.84-24.49-.66-.28-1.76-.85-2.8-1.92-1.03-1.06-1.56-2.16-1.82-2.83.03-52.46.07-104.92.1-157.38-45.47-2.02-90.94-4.03-136.42-6.05Z"/>
    <path class="cls-21" d="M675.06,450.04c-.34,28.85-.67,57.71-1.01,86.56-.35.83-1.07,2.25-2.49,3.57-1.27,1.18-2.56,1.78-3.37,2.09-.43,8.61-.85,17.21-1.28,25.82,78.39,10.15,156.79,20.29,235.18,30.44-.63-51.06-1.26-102.11-1.89-153.17-75.04,1.56-150.09,3.12-225.13,4.69Z"/>
  </g>
  <g id="Layer_2" data-name="Layer 2">
    <polygon class="cls-1" points="188.54 491 194.87 450.01 173.17 449.21 173.17 491 188.54 491"/>
    <polygon class="cls-1" points="202.83 451.23 237.31 454.67 231.85 495.62 197.47 491.68 202.83 451.23"/>
    <path class="cls-1" d="M248.44,455.88l42.88,5.06s-.3,42.27-1.11,42.27-48.44-5.87-48.44-5.87l6.67-41.46Z"/>
    <path class="cls-1" d="M241.76,438.38l50.9,5.26s2.56-44.36,1.89-44.22-44.76-5.39-44.76-5.39l-8.02,44.36Z"/>
    <path class="cls-1" d="M187.19,432.99c-.51,0-12.54-.91-12.54-.91l3.03-46.52,18.91,1.62-9.4,45.81Z"/>
    <path class="cls-1" d="M330.24,470.68v38.73l40.85,4.45s.2-43.79,0-43.79-40.85.61-40.85.61Z"/>
    <polygon class="cls-1" points="329.2 463.63 370.05 462.69 369.18 410.98 330.24 411.99 329.2 463.63"/>
    <polygon class="cls-1" points="329.2 403.19 368.97 403.19 368.47 364.16 329.2 363.25 329.2 403.19"/>
    <polygon class="cls-1" points="329.35 354.82 368.82 354.28 368.12 324.76 329.35 323.95 329.35 354.82"/>
    <polygon class="cls-1" points="329.2 316.67 367.46 316.67 366.38 251.95 329.2 253.03 329.2 316.67"/>
    <polygon class="cls-1" points="329.2 247.46 366.51 246.65 365.03 206.07 329.2 204.86 329.2 247.46"/>
    <polygon class="cls-1" points="398.2 259.73 431.1 261.62 431.1 202.83 398.2 200.95 398.2 259.73"/>
    <polygon class="cls-1" points="438.38 248.68 496.36 250.97 496.36 206.61 438.38 202.83 438.38 248.68"/>
    <polygon class="cls-1" points="438.92 258.65 451.73 265.94 496.36 266.61 498.11 340.09 439.59 337.4 438.92 258.65"/>
    <polygon class="cls-1" points="438.92 348.32 439.59 382.97 498.11 383.51 498.11 348.32 438.92 348.32"/>
    <polygon class="cls-1" points="439.86 393.35 498.11 392.54 499.05 435.28 439.86 434.74 439.86 393.35"/>
    <polygon class="cls-1" points="439.86 442.83 440.67 474.65 447.41 484.09 499.59 484.09 499.05 442.83 439.86 442.83"/>
    <polygon class="cls-1" points="447.41 487.33 447.41 520.5 499.59 525.89 499.59 489.08 447.41 487.33"/>
    <polygon class="cls-1" points="442.02 519.82 443.23 487.33 439.86 484.09 403.05 484.09 403.05 516.18 442.02 519.82"/>
    <polygon class="cls-1" points="401.71 478.56 434.6 479.37 433.79 433.13 401.71 432.18 401.71 478.56"/>
    <polyline class="cls-1" points="401.71 420.18 433.66 420.18 433.66 376.23 401.03 376.23 401.71 421.13"/>
    <polygon class="cls-1" points="401.03 369.49 433.66 369.49 432.72 327.01 401.03 327.01 401.03 369.49"/>
    <polygon class="cls-1" points="398.2 269.17 431.1 269.17 433.66 316.67 401.03 316.67 398.2 269.17"/>
    <polygon class="cls-1" points="525.14 283.67 592.29 283.67 598.9 219.62 527.84 213.28 525.14 283.67"/>
    <path class="cls-1" d="M525.14,293.37s-2.16,60.51-1.75,60.51,76.25-2.02,76.25-2.02l-6.81-58.48h-67.69Z"/>
    <polygon class="cls-1" points="604.63 293.37 638.4 293.37 643.66 351.01 611.71 351.01 604.63 293.37"/>
    <polygon class="cls-1" points="604.63 282.25 638.81 283.67 642.04 223.6 617.77 220.97 604.63 282.25"/>
    <polygon class="cls-1" points="648.51 282.86 681.28 282.86 683.1 226.9 655.59 224.61 648.51 282.86"/>
    <path class="cls-1" d="M648.51,294.99s37.21.2,37.21.81v31.75l-8.7,1.82.4,21.64h-24.47l-4.45-56.02Z"/>
    <polygon class="cls-1" points="695.64 340.09 695.64 296.21 731.23 296.21 731.23 323 726.78 323 722.13 340.09 695.64 340.09"/>
    <polygon class="cls-1" points="691.39 267.69 694.02 226.9 729.41 230.68 729.41 266.47 691.39 267.69"/>
    <path class="cls-1" d="M762.78,241.19c1.01.2,0,56.63,0,56.63h5.26v13.96h27.91l3.44-68.76-36.61-1.82Z"/>
    <polygon class="cls-1" points="805.46 243.42 835.59 246.45 835.59 305.91 829.32 305.91 826.49 311.78 811.12 311.78 810.92 281.44 805.46 280.83 805.46 243.42"/>
    <polygon class="cls-1" points="849.35 247.29 847.12 292.97 854.6 294.99 854.6 311.78 885.14 311.79 884.33 249.49 849.35 247.29"/>
    <path class="cls-1" d="M885.14,320.27c-.4.81,2.02,44.09,0,44.09s-63.3.81-63.3,0v-27.3l11.12-.4-.81-16.38h52.99Z"/>
    <path class="cls-1" d="M762.78,356.88h53.39v-12.94h-5.06l.2-11.53h4.85s.61-13.15,0-13.15h-52.18l-1.21,37.62Z"/>
    <path class="cls-1" d="M764,364.72h35.39v58.49s-35.39,1.21-35.39,0v-58.49Z"/>
    <path class="cls-1" d="M809.5,368.21c.61-.2,68.56,1.01,68.56,1.01v52.38l-68.03,1.03-.53-54.42Z"/>
    <polygon class="cls-1" points="922.69 377.29 1033.11 395.4 1033.11 430.48 922.69 416.32 922.69 377.29"/>
    <path class="cls-1" d="M922.69,424.21v39.64l112.04,9.3v-33.98l-44.29-6.07-.61,6.07-17.8-2.02s1.21-6.88.61-6.67-49.96-6.27-49.96-6.27Z"/>
    <polygon class="cls-1" points="925.25 473.15 1036.48 482.39 1036.48 505.24 926.26 495.54 925.25 473.15"/>
    <path class="cls-1" d="M926.66,519.2c1.21,0,45.3,4.25,45.3,4.25l-3.24,74.22-40.65-3.64-1.42-74.83Z"/>
    <polygon class="cls-1" points="985.72 524.05 1036.48 528.3 1035.27 605.56 981.88 599.49 985.72 524.05"/>
    <path class="cls-1" d="M1048.82,539.83c.61,0,52.18,3.24,52.18,3.24v27.91l53.19,3.24s3.24,45.51,2.43,45.51-110.63-13.15-110.63-13.15l2.83-66.74Z"/>
    <path class="cls-1" d="M1058.26,413.29c1.21.13,64.04,7.96,64.04,7.96l1.89,60.13-7.01-1.35-.27,5.8-24.27-3.1.4-7.96s-35.87-3.78-35.87-4.18,1.08-57.3,1.08-57.3Z"/>
    <polygon class="cls-1" points="887.66 452.46 863.8 452.46 861.78 509.9 889.28 509.9 887.66 452.46"/>
    <path class="cls-1" d="M850.25,508.28s3.03-56.22,2.43-55.82-37.42,0-37.42,0l-3.24,55.82h38.22Z"/>
    <polygon class="cls-1" points="805.55 508.28 729.51 505.24 731.12 454.48 764 454.48 764 480.37 778.04 480.37 778.04 454.48 805.55 454.48 805.55 508.28"/>
    <polygon class="cls-1" points="681.71 500.12 691.96 500.39 691.15 504.03 701.93 504.03 702.47 500.66 715.96 500.66 717.03 455.76 681.71 455.76 681.71 500.12"/>
    <path class="cls-1" d="M681.71,511.92l41.6,3.64-5.26,52.79-31.15-3.44s2.22-24.07,1.62-24.78-6.81-2.12-6.81-2.12v-26.09Z"/>
    <path class="cls-1" d="M728.63,515.69l33.44,2.43-2.16,54.88s-33.17-2.56-33.17-3.24,1.89-54.07,1.89-54.07Z"/>
    <path class="cls-1" d="M779.73,527.02l28.04.81-.81,22.25,6.74.81-1.69,27.78s-46.58-4.31-46.58-4.72.4-28.04,1.08-28.04,12.27.27,12.27.27l.94-19.15Z"/>
    <path class="cls-1" d="M816.81,578.66l3.78-42.34,4.85,1.08,1.62-14.16,8.76,1.08v4.45l10.38,1.08v6.34l4.72.67s-1.08,46.38-1.48,46.25-32.63-4.45-32.63-4.45Z"/>
    <polygon class="cls-1" points="868.72 527.02 868.72 541.04 858.88 541.04 857.66 584.8 864.67 584.8 865.21 578.66 872.76 578.66 872.76 586.48 889.28 588.23 889.28 527.02 868.72 527.02"/>
    <polygon class="cls-1" points="528.67 388.21 526.52 440.53 563.46 440.53 563.46 388.21 528.67 388.21"/>
    <polygon class="cls-1" points="573.3 387.54 593.93 388.21 593.94 393.1 610.52 393.1 610.52 440.12 598.48 439.72 598.38 433.95 590.09 434.15 590.49 440.12 573.3 439.72 573.3 387.54"/>
    <path class="cls-1" d="M616.38,388.21h31.75s-1.01,51.81-1.31,51.91-30.44,0-30.44,0v-51.91Z"/>
    <polygon class="cls-1" points="596.09 446.83 646.38 446.15 645.3 487.55 596.09 487.55 596.09 446.83"/>
    <path class="cls-1" d="M579.78,487.55v-40.45h-53.26s-2.43,38.83-2.02,38.7,55.28,1.75,55.28,1.75Z"/>
    <polygon class="cls-1" points="524.45 491.86 564.67 493.48 563.46 506.56 579.78 506.56 579.78 491.86 611.6 496.04 607.82 551.32 579.1 548.36 579.78 533.66 563.46 531.23 562.25 546.6 531.37 544.45 532.04 536.49 526.52 536.22 527.46 528 522.47 527.73 524.45 491.86"/>
    <path class="cls-1" d="M616.72,496.58l-3.24,54.74,29.39,3.24s2.43-54.34,2.02-54.34-28.18-3.64-28.18-3.64Z"/>
    <polygon class="cls-1" points="1176.61 534.13 1177.82 624.47 1212.61 627.44 1212.07 549.1 1204.79 548.83 1204.79 534.13 1176.61 534.13"/>
    <polygon class="cls-1" points="1226.09 532.78 1227.3 578.36 1231.21 581.46 1232.02 631.88 1270.72 635.66 1270.04 538.04 1236.07 538.45 1236.07 532.78 1226.09 532.78"/>
    <polygon class="cls-1" points="1282.18 561.77 1322.49 561.77 1329.51 642 1288.65 637.55 1282.18 561.77"/>
    <polygon class="cls-1" points="1338.54 642.67 1369.96 646.18 1370.49 639.84 1380.74 640.51 1377.64 560.29 1343.12 560.29 1343.8 575.26 1335.57 574.85 1336.25 592.11 1342.31 591.84 1343.39 611.93 1337.46 611.66 1338.54 642.67"/>
    <polygon class="cls-1" points="1282.18 554.36 1377.78 554.36 1375.75 507.97 1366.58 507.97 1363.55 452.15 1304.29 448.72 1301.87 482.69 1308.34 483.1 1308.13 501.54 1282.18 501.54 1282.18 554.36"/>
    <path class="cls-1" d="M1176.61,507.77s57.3-2.83,58.11-3.84,0-71.39,0-71.39l-58.11,1.21v74.02Z"/>
    <polygon class="cls-1" points="1412.9 443.05 1413.71 397.95 1481.66 400.99 1477.62 450.54 1412.9 443.05"/>
    <path class="cls-1" d="M1491.37,452.15c.61,0,5.87-51.17,5.87-51.17l56.02,2.22v53.39l-61.89-4.45Z"/>
    <path class="cls-1" d="M1472.36,455.19c1.01.2,80.9,8.09,80.9,8.09l-1.35,134.83h-33.98l-.2-113.66-48.27,1.89,2.9-31.15Z"/>
    <path class="cls-1" d="M1414.65,489.77l53.39,4.25,34.58,7.52s1.62,5.83,2.43,6.24,1.42,64.31,1.42,64.31h-90.4l-.2-28.52,13.55-.61-1.01-21.24-13.75.81v-32.76Z"/>
    <polygon class="cls-1" points="1416.47 578.36 1506.47 578.36 1507.89 612.94 1416.47 613.95 1416.47 578.36"/>
    <path class="cls-1" d="M1416.47,620.02h40.65v32.16l-39.64-3.84-1.01-28.31Z"/>
    <polygon class="cls-1" points="1463.39 620.02 1507.89 618.4 1507.89 647.93 1502.63 652.18 1502.63 657.03 1462.18 653.59 1463.39 620.02"/>
    <polygon class="cls-1" points="1515.17 658.65 1550.76 661.88 1550.76 612.94 1521.44 613.95 1521.03 629.12 1515.17 631.55 1515.17 658.65"/>
    <polygon class="cls-1" points="1592.29 626.49 1592.29 661.88 1631.12 665.86 1631.12 620.02 1592.29 626.49"/>
    <path class="cls-1" d="M1592.29,612.94c.27-.47,33.44.47,34.25,0s.54-67.08,0-67.08-32.63-1.62-32.63-1.62l-1.62,68.7Z"/>
    <polygon class="cls-1" points="1594.18 532.65 1618.72 532.65 1618.72 473.32 1594.18 471.97 1594.18 532.65"/>
    <path class="cls-1" d="M1594.18,464.96v-55.55s33.11,8.36,32.87,9.44,0,47.19,0,47.19l-32.87-1.08Z"/>
    <polygon class="cls-1" points="1629.51 495.44 1631.12 553.14 1661.87 553.14 1661.87 532.65 1653.51 532.65 1656.47 495.44 1629.51 495.44"/>
    <polygon class="cls-1" points="1638.94 558.54 1711.21 555.84 1707.98 613.08 1641.91 616.51 1638.94 558.54"/>
    <polygon class="cls-1" points="1721.46 555.84 1832.56 558.54 1831.21 583.35 1804.79 583.35 1803.98 599.53 1782.94 597.91 1784.02 588.2 1747.89 586.18 1746.54 605.19 1718.22 605.19 1721.46 555.84"/>
    <path class="cls-1" d="M1758.4,594.13c.81-.27,20.76,2.16,20.76,2.16l-10.38,88.45-20.63-2.16,2.16-28.31-40.45-1.89,1.35-27.24,31.55,1.62,1.75-8.9,12.54.54,1.35-24.27Z"/>
    <path class="cls-1" d="M1917.64,512.56l13.75,112.99s59.06-9.71,59.06-11.06-13.75-111.64-13.75-111.64l-59.06,9.71Z"/>
    <path class="cls-1" d="M2003.12,500.15s33.17-.27,33.17,0,9.44,80.09,9.44,80.09l-29.12,3.24-13.48-83.33Z"/>
    <polygon class="cls-1" points="2048.16 500.03 2086.45 500.03 2093.19 574.58 2058.13 578.36 2048.16 500.03"/>
    <path class="cls-1" d="M2009.6,635.79l7.01,60.4,81.44-8.9v-31.01s-39.1,4.85-38.02,2.97,2.97-33.71,2.97-33.71l-53.39,10.25Z"/>
    <path class="cls-1" d="M2004.74,646.04c.27.81,4.85,50.16,4.85,50.16l-69.3,8.09-1.89-25.62,23.46-5.12-2.7-20.76,45.57-6.74Z"/>
    <polygon class="cls-1" points="1731.84 434.02 1733.66 477.3 1784.02 481.95 1779.37 530.29 1832.56 530.29 1827.3 449.19 1731.84 434.02"/>
    <path class="cls-1" d="M1723.96,432.2s3.44,44.09,2.83,44.09-34.18-2.63-34.18-2.63l-1.42-46.72,32.76,5.26Z"/>
    <path class="cls-1" d="M1969.85,925.68c1.01.2,44.29-4.25,44.29-4.25l-3.03-55.62-9.1,1.21-.61-9.71-40.25,5.06,8.7,63.3Z"/>
    <path class="cls-1" d="M1958.93,852.06l-12.34-105.17,163.62-15.17,7.01,174-65.26,11.6-.81-67.15,34.52-4.04s.27-8.9-.54-8.9-53.22,3.24-53.22,3.24v-26.7l-27.94,1.89.81,29.66-45.84,6.74Z"/>
    <polygon class="cls-1" points="1869.34 895.73 1865.56 952.23 1889.02 956 1896.71 943.73 1887.94 893.17 1869.34 895.73"/>
    <path class="cls-1" d="M1859.9,896.54l-29.26,2.02s-7.15,47.33-6.61,47.33,32.76,4.45,32.76,4.45l3.1-53.8Z"/>
    <polygon class="cls-1" points="1816.08 917.32 1812.03 949.26 1764.84 944.14 1769.7 908.27 1816.08 917.32"/>
    <path class="cls-1" d="M1766.06,902.61c.67.13,45.57,3.51,45.57,3.51l2.02-37.62-42.88-2.83-4.72,36.94Z"/>
    <polygon class="cls-1" points="1832.26 887.64 1885.25 882.38 1879.58 853.8 1836.84 857.32 1832.26 887.64"/>
    <path class="cls-1" d="M1852.48,848.68c.4,0,29.8-2.7,29.8-2.7l-6.47-38.56-29.39,1.21,6.07,40.04Z"/>
    <polygon class="cls-1" points="1783.45 812.68 1826.6 819.01 1833.61 799.46 1863.13 801.76 1875.54 794.34 1875.54 755.24 1868.8 746.88 1837.25 743.64 1835.49 771.01 1788.57 765.76 1783.45 812.68"/>
    <polygon class="cls-1" points="1812.88 763.37 1862.9 768.76 1864.92 751.77 1816.52 745.3 1812.88 763.37"/>
    <polygon class="cls-1" points="1686.51 862.97 1689.34 836.88 1740.3 843.15 1737.98 868.43 1686.51 862.97"/>
    <path class="cls-1" d="M1745.97,797.14c-.1.3-3.13,31.55-3.13,31.55,0,0-37.72-3.24-37.72-3.64v-5.56l-13.75-.47.51-9.54,11.73.3.2-8.49-5.46-.2v-8.8l47.63,4.85Z"/>
    <polygon class="cls-1" points="1695.51 782.78 1747.89 787.63 1754.06 732.92 1701.34 725.14 1695.51 782.78"/>
    <polygon class="cls-1" points="1635.81 774.69 1683.54 779.54 1691.36 724.13 1640.46 717.25 1635.81 774.69"/>
    <polygon class="cls-1" points="1634.19 783.18 1681.11 787.63 1677.07 821 1629.74 816.15 1634.19 783.18"/>
    <polygon class="cls-1" points="1628.12 828.69 1676.06 834.35 1672.42 861.45 1624.89 855.79 1628.12 828.69"/>
    <polygon class="cls-1" points="1622.76 874.77 1670.22 880.03 1664.16 925.46 1618.04 918.86 1622.76 874.77"/>
    <polygon class="cls-1" points="1552.79 913.6 1558.45 861.45 1593.24 865.19 1590.67 889.73 1583.53 888.92 1578.94 916.83 1552.79 913.6"/>
    <polygon class="cls-1" points="1542.94 911.98 1548.07 860.07 1516.65 856.97 1509.24 909.69 1542.94 911.98"/>
    <polygon class="cls-1" points="1498.04 907.26 1506.67 854.54 1474.45 851.85 1467.84 905.24 1498.04 907.26"/>
    <polygon class="cls-1" points="1476.74 839.85 1527.71 846.59 1530.81 814.23 1481.33 810.18 1476.74 839.85"/>
    <polygon class="cls-1" points="1542.67 849.15 1594.58 856.97 1599.44 821 1545.37 815.58 1542.67 849.15"/>
    <polygon class="cls-1" points="1546.18 804.79 1600.92 810.18 1605.24 782.27 1549.15 776.74 1546.18 804.79"/>
    <polygon class="cls-1" points="1483.35 798.72 1532.02 802.9 1534.04 775.67 1487.26 771.49 1483.35 798.72"/>
    <polygon class="cls-1" points="1578 711.35 1574.9 736.83 1582.04 737.78 1579.08 759.89 1607.66 762.18 1614.54 715.4 1578 711.35"/>
    <polygon class="cls-1" points="1571.39 711.35 1566.27 763.53 1531.48 760.7 1537.96 706.36 1571.39 711.35"/>
    <polygon class="cls-1" points="1499.93 701.78 1498.99 716.88 1493.46 716.88 1492.25 727.94 1501.28 729.01 1501.28 733.33 1491.57 731.44 1487.66 756.25 1517.33 758.81 1526.36 705.42 1499.93 701.78"/>
    <polygon class="cls-1" points="1432.18 694.09 1462.18 699.15 1456.04 747.28 1426.11 744.25 1432.18 694.09"/>
    <polygon class="cls-1" points="1415.6 692.88 1409.53 742.63 1379.19 739.6 1386.47 688.83 1415.6 692.88"/>
    <polygon class="cls-1" points="1371.71 686.81 1368.07 737.78 1339.55 735.96 1346.22 684.38 1371.71 686.81"/>
    <polygon class="cls-1" points="1337.93 747.28 1388.09 753.15 1384.45 786.12 1333.08 781.26 1337.93 747.28"/>
    <polygon class="cls-1" points="1401.44 754.77 1453.62 761.04 1449.78 790.16 1396.18 787.19 1401.44 754.77"/>
    <polygon class="cls-1" points="1402.45 799.67 1447.55 802.9 1444.15 834.05 1399.82 828.38 1402.45 799.67"/>
    <polygon class="cls-1" points="1383.44 793.46 1380 828.38 1327.21 823.53 1332.07 790.97 1383.44 793.46"/>
    <path class="cls-1" d="M1326,832.03s-7.08,42.27-5.46,42.47,4.45,1.01,4.45,1.01l-1.84,9.91,16.2,1.01,1.82-10.52,14.16-1.82,1.01-17.12h-4.04l.61-7.96h3.44l1.01-13.55-31.35-3.44Z"/>
    <polygon class="cls-1" points="1368.88 838.29 1395.98 841.13 1394.56 893.1 1366.45 889.14 1368.88 838.29"/>
    <polygon class="cls-1" points="1404.88 841.13 1401.44 893.1 1428.94 895.53 1431.37 881.98 1437.84 882.18 1442.29 844.36 1404.88 841.13"/>
    <polygon class="cls-1" points="1263.51 825.28 1290 827.1 1282.52 880.9 1255.01 877.67 1263.51 825.28"/>
    <polygon class="cls-1" points="1244.29 875.24 1248.74 823.87 1219.62 822.05 1210.92 869.98 1244.29 875.24"/>
    <path class="cls-1" d="M1173.3,863.71c.61,0,25.89,4.25,25.89,4.25l7.08-44.9-25.89-4.45-7.08,45.1Z"/>
    <polygon class="cls-1" points="1247.66 777.96 1240.52 814.63 1290.81 818.61 1296.74 783.49 1247.66 777.96"/>
    <polygon class="cls-1" points="1182.27 806.81 1188.2 771.89 1235.39 776.74 1227.84 813.82 1182.27 806.81"/>
    <polygon class="cls-1" points="1189.82 759.49 1238.09 765.28 1240.52 730.36 1195.08 724.03 1189.82 759.49"/>
    <path class="cls-1" d="M1249.82,767.85c.54,0,47.73,2.83,47.73,2.83l4.85-26.7-48.4-9.44-4.18,33.3Z"/>
    <polygon class="cls-1" points="1269.37 727.4 1303.48 733.06 1313.19 681.69 1278.13 676.56 1269.37 727.4"/>
    <path class="cls-1" d="M1232.43,719.17c.94.13,28.18,5.53,28.18,5.53l8.76-49.21-31.55-4.18-5.39,47.87Z"/>
    <polygon class="cls-1" points="1197.24 714.59 1223.39 718.5 1231.35 669.28 1203.84 665.24 1197.24 714.59"/>
    <polygon class="cls-1" points="1084.72 859.23 1091.19 823.67 1141.16 828.38 1134.34 866.81 1084.72 859.23"/>
    <polygon class="cls-1" points="1092.81 813.82 1141.16 820.43 1148.36 786.12 1097.93 777.96 1092.81 813.82"/>
    <polygon class="cls-1" points="1099.48 771.25 1149.51 777.96 1162.31 711.79 1110.54 703.16 1099.48 771.25"/>
    <polygon class="cls-1" points="997.15 869 1066.52 878.51 1075.01 837.86 1002.4 828.55 997.15 869"/>
    <polygon class="cls-1" points="1004.43 816.82 1077.84 822.05 1087.55 745.63 1016.56 737.95 1004.43 816.82"/>
    <polygon class="cls-1" points="1019.19 723.18 1088.36 731.27 1096.65 680.91 1165.01 688.8 1169.66 665.24 1028.29 645.72 1019.19 723.18"/>
    <polygon class="cls-1" points="871.82 896.31 955.69 904.26 965.53 840.35 884.76 828.55 871.82 896.31"/>
    <polygon class="cls-1" points="886.11 821.47 959.6 831.99 968.36 784.26 891.64 772.8 886.11 821.47"/>
    <path class="cls-1" d="M898.11,764.71c2.29.13,68.63,10.11,68.63,10.11l6.07-36.88-44.9-9.64-2.97,9.03-21.71-3.78-5.12,31.15Z"/>
    <polygon class="cls-1" points="955.42 634.73 951.57 678.62 959.26 678.62 951.57 725.95 975.64 731.27 992.22 640.8 955.42 634.73"/>
    <path class="cls-1" d="M946.52,634.73c0,.4-12.13,81.91-12.13,81.91l-29.12-5.06,12.13-78.47,29.12,1.62Z"/>
    <path class="cls-1" d="M912.74,633.12c-1.21,0-50.97-6.27-50.97-6.27l-1.82,15.37,11.33,2.43-9.91,42.07,32.56,4.25,6.88-42.47,9.51,2.02,2.43-17.39Z"/>
    <polygon class="cls-1" points="854.29 624.82 839.33 622.4 830.43 626.85 820.52 697.03 847.21 701.27 854.29 624.82"/>
    <path class="cls-1" d="M815.06,720.89l74.43,16.99s-4.85,27.1-5.46,27.1-74.02-13.42-74.02-13.42l5.06-30.67Z"/>
    <polygon class="cls-1" points="803.53 798.96 842.36 805.23 847.42 784.19 859.96 784.19 862.58 764.98 828.4 759.72 825.37 769.83 808.38 764.98 803.53 798.96"/>
    <path class="cls-1" d="M802.31,807.45l-4.65,29.73s64.11,13.96,64.92,13.35,9.51-34.79,9.51-34.79l-69.78-8.29Z"/>
    <polygon class="cls-1" points="690.27 748.6 772.18 769.23 763.28 795.92 686.02 783.38 690.27 748.6"/>
    <path class="cls-1" d="M685.01,795.92c1.62-.2,75.24,9.3,75.24,9.3l-9.51,30.94-73.01-15.17,7.28-25.08Z"/>
    <path class="cls-1" d="M577.42,799.97c1.82,0,82.92,18.61,82.92,18.61l6.47-26.9-80.49-17.39-8.9,25.69Z"/>
    <polygon class="cls-1" points="590.97 761.74 600.07 728.17 673.28 744.96 668.83 775.9 590.97 761.74"/>
    <polygon class="cls-1" points="600.88 717.86 604.92 696.01 646.18 705.92 651.84 689.95 681.17 698.04 673.28 732.42 600.88 717.86"/>
    <path class="cls-1" d="M695.12,725.95c2.02-.2,85.15,16.99,85.15,16.99l4.65-15.98-12.74-3.64v-25.69l16.58,3.64,12.34-83.73-42.88-6.88-6.47,33.37s-12.13-1.62-11.53-2.02,4.18-27.71,4.18-27.71l-120.27-17.6-15.78,69.37,41.87,9.91,6.07-30.74,36.61,6.27,1.82-14.36,18.61,3.84-2.63,13.35-9.3.81-4.04,13.55,11.73,1.11-4.35,13.04-9.81-3.84-5.06,19.82,12.64,4.65-7.38,22.45Z"/>
    <polygon class="cls-1" points="456.54 798.76 491.87 806.98 488.36 818.58 498.61 820.73 502.25 809.74 533.39 816.96 523.82 847.16 446.56 834.49 456.54 798.76"/>
    <path class="cls-1" d="M456.4,790.94c1.21.27,24.27,5.49,24.27,5.49l1.48-4.82,11.46,3.1-1.62,4.04,40.58,9.57,9.84-34.79-41.53-9.71-1.48,5.26-11.73-3.24,1.48-5.12-23.6-6.47-9.17,36.67Z"/>
    <polygon class="cls-1" points="358.25 822.96 429.3 833 437.26 803.74 369.44 783.65 358.25 822.96"/>
    <polygon class="cls-1" points="371.93 774.28 394.58 699.59 460.52 717.38 440.49 791.41 371.93 774.28"/>
    <polygon class="cls-1" points="553.35 737.21 499.42 725.47 497.93 730.33 477.71 725.47 474.88 736.4 550.72 752.04 553.35 737.21"/>
    <path class="cls-1" d="M538.04,711.18l1.72-8.02-10.42-3.13s-4.35-21.54-4.65-21.54-38.53-11.93-38.53-11.93l-7.38,33.98,59.26,10.65Z"/>
    <path class="cls-1" d="M464.46,692.88c-1.21-.2-63.71-16.18-63.71-16.18l11.53-33.78,62.6,18.4-10.42,31.55Z"/>
    <polygon class="cls-1" points="414.3 635.85 445.85 642.92 449.9 606.32 457.99 607.73 461.63 587.91 424.62 583.06 414.3 635.85"/>
    <polygon class="cls-1" points="469.11 588.12 457.99 646.56 489.13 650.41 498.24 589.94 469.11 588.12"/>
    <path class="cls-1" d="M509.28,580.23c.29.81-4.97,28.72-4.97,28.72l13.35,2.02-13.35,41.46s36.2,6.47,36.4,5.87,13.35-73.49,13.35-73.49l-44.78-4.57Z"/>
    <path class="cls-1" d="M559.92,586.29s-18,87.57-17.19,87.78,29.12,2.02,29.12,2.02l17.6-86.76-29.53-3.03Z"/>
    <polygon class="cls-1" points="281.63 758.54 257.16 834.38 299.02 848.74 325.72 771.08 281.63 758.54"/>
    <polygon class="cls-1" points="277.18 745.5 330.17 758.54 353.02 695.85 299.22 681.28 277.18 745.5"/>
    <polygon class="cls-1" points="188.19 812.54 201.54 769.46 163.11 750.65 163.11 805.26 188.19 812.54"/>
    <path class="cls-1" d="M210.44,737.1c-1.82,0-45.91-13.15-45.91-13.15l2.43-48.94,58.04,15.17-14.56,46.92Z"/>
    <polygon class="cls-1" points="269.22 642.92 348.51 652.9 357.4 580.23 280.82 570.92 269.22 642.92"/>
    <path class="cls-1" d="M233.63,638.61c2.16.54,26.16,3.24,26.16,3.24l12.13-72.81-31.55-4.31-9.98,47.19,9.17,2.7-5.93,24Z"/>
    <path class="cls-1" d="M213.94,635.37l13.48-72.54-58.52-7.82s-16.45,72.81-14.29,72.81,59.33,7.55,59.33,7.55Z"/>
  </g>
  <g id="Layer_6" data-name="Layer 6">
    <text class="cls-18" transform="translate(1872.68 535.72) rotate(85)"><tspan x="0" y="0">ז’בוטינסקי</tspan></text>
    <text class="cls-8" transform="translate(1433.04 689.43) rotate(6)"><tspan x="0" y="0">רוטשילד</tspan></text>
    <text class="cls-5" transform="translate(635.07 592.15) rotate(7)"><tspan x="0" y="0">רוטשילד</tspan></text>
    <text class="cls-20" transform="translate(1614.8 865.66) rotate(-83)"><tspan x="0" y="0">התאנה</tspan></text>
    <text class="cls-11" transform="translate(1469.71 838.18) rotate(-83)"><tspan x="0" y="0">הרימון</tspan></text>
    <text class="cls-23" transform="translate(1323.71 810.8) rotate(-83)"><tspan x="0" y="0">הזית</tspan></text>
    <text class="cls-22" transform="translate(1176.58 807.96) rotate(-82)"><tspan x="0" y="0">השקד</tspan></text>
    <text class="cls-13" transform="translate(1002.31 784.59) rotate(-84)"><tspan x="0" y="0">הגפן</tspan></text>
    <text class="cls-15" transform="translate(797.84 790.06) rotate(-80)"><tspan x="0" y="0">השדה</tspan></text>
    <text class="cls-10" transform="translate(585.04 749) rotate(-78)"><tspan x="0" y="0">ההדרים</tspan></text>
    <text class="cls-4" transform="translate(321.15 500.34) rotate(-90)"><tspan x="0" y="0">ארלוזרוב</tspan></text>
    <text class="cls-24" transform="translate(395.9 464) rotate(-91)"><tspan x="0" y="0">מאפו</tspan></text>
    <text class="cls-19" transform="translate(518.16 466) rotate(-90)"><tspan x="0" y="0">דב הוז</tspan></text>
    <text class="cls-12" transform="translate(672.05 520.45) rotate(-90)"><tspan x="0" y="0">הלוחמים</tspan></text>
    <text class="cls-3" transform="translate(1170.59 550.6) rotate(-92)"><tspan x="0" y="0">האחות שרה</tspan></text>
    <text class="cls-16" transform="translate(1408.96 597.97) rotate(-91)"><tspan x="0" y="0">הדגל העברי</tspan></text>
    <text class="cls-6" transform="translate(1584.9 605.19) rotate(-89.5)"><tspan x="0" y="0">התקווה</tspan></text>
    <text class="cls-2" transform="translate(917.27 578.91) rotate(-91)"><tspan x="0" y="0">א.ד גורדון</tspan></text>
    <text class="cls-9" transform="translate(338.95 849.99) rotate(-73)"><tspan x="0" y="0">דוד רמז</tspan></text>
    <text class="cls-25" transform="translate(1762.68 885.34) rotate(-83)"><tspan x="0" y="0">השיקמה</tspan></text>
  </g>
</svg>